<?xml version="1.0" encoding="UTF-8"?>
<svg width="48px" height="48px" viewBox="0 0 48 48" version="1.1" xmlns="http://www.w3.org/2000/svg" xmlns:xlink="http://www.w3.org/1999/xlink">
    <title>device</title>
    <g id="页面-1" stroke="none" stroke-width="1" fill="none" fill-rule="evenodd">
        <g id="device">
            <rect id="矩形" x="0" y="0" width="48" height="48" rx="8"></rect>
            <path d="M24,6 C33.9411255,6 42,14.0588745 42,24 C42,32.743336 35.7661318,40.030674 27.5005882,41.6598215 L27.5005911,39.6158961 C34.6534768,38.019452 40,31.6340997 40,24 C40,15.163444 32.836556,8 24,8 C15.163444,8 8,15.163444 8,24 C8,31.6344563 13.3470227,38.0200485 20.5004113,39.6161198 L20.5004095,41.6600181 C12.2343698,40.0312604 6,32.7436877 6,24 C6,14.0588745 14.0588745,6 24,6 Z M24,10 C31.7319865,10 38,16.2680135 38,24 C38,30.523188 33.5386372,36.004369 27.5006941,37.5587601 L27.5004632,35.4814221 C32.4203205,33.9833614 36,29.4097202 36,24 C36,17.372583 30.627417,12 24,12 C17.372583,12 12,17.372583 12,24 C12,29.4100843 15.5801614,33.9839771 20.5005303,35.4817245 L20.5003064,37.5590177 C14.4618557,36.0049745 10,30.5235483 10,24 C10,16.2680135 16.2680135,10 24,10 Z M24,14 C29.5228475,14 34,18.4771525 34,24 C34,28.2912283 31.2970436,31.9511474 27.5007916,33.3700965 L27.5002124,31.1956636 C30.1643328,29.897328 32,27.1630355 32,24 C32,19.581722 28.418278,16 24,16 C19.581722,16 16,19.581722 16,24 C16,27.1634344 17.8361302,29.8980176 20.5007955,31.1961547 L20.5002102,33.3704708 C16.7034319,31.9517912 14,28.2916058 14,24 C14,18.4771525 18.4771525,14 24,14 Z M24,18 C27.3137085,18 30,20.6862915 30,24 C30,26.0071198 29.0144671,27.7840561 27.5009178,28.8732922 L27.5019588,25.9344693 C27.819325,25.3611677 28,24.7016833 28,24 C28,21.790861 26.209139,20 24,20 C21.790861,20 20,21.790861 20,24 C20,24.7024997 20.1810957,25.3627022 20.4991495,25.93647 L20.5000904,28.8740176 C18.9859706,27.7848452 18,26.0075655 18,24 C18,20.6862915 20.6862915,18 24,18 Z" id="形状结合" fill="#FFFFFF" fill-rule="nonzero"></path>
            <rect id="矩形" fill="#FFFFFF" fill-rule="nonzero" x="22" y="28" width="4" height="15" rx="2"></rect>
            <circle id="椭圆形" stroke="#FFFFFF" stroke-width="2" fill="#FFFFFF" fill-rule="nonzero" cx="24" cy="24" r="1"></circle>
        </g>
    </g>
</svg>