<?xml version="1.0" encoding="UTF-8"?>
<svg width="48px" height="48px" viewBox="0 0 48 48" version="1.1" xmlns="http://www.w3.org/2000/svg" xmlns:xlink="http://www.w3.org/1999/xlink">
    <title>编组</title>
    <g id="页面-1" stroke="none" stroke-width="1" fill="none" fill-rule="evenodd">
        <g id="编组">
            <path d="M41,32.5271795 L41,10.7323077 C41,10.3312821 40.6687179,10 40.2676923,10 L7.73230769,10 C7.33128205,10 7,10.3312821 7,10.7323077 L7,32.5271795 C7,33.1548718 7.50564103,33.6605128 8.13333333,33.6605128 L21.785641,33.6605128 L21.785641,36.6246154 L16.6071795,36.6246154 C16.2061538,36.6246154 15.8748718,36.9558974 15.8748718,37.3569231 C15.8748718,37.7579487 16.2061538,38.0892308 16.6071795,38.0892308 L31.3928205,38.0892308 C31.7938462,38.0892308 32.1251282,37.7579487 32.1251282,37.3569231 C32.1251282,36.9558974 31.7938462,36.6246154 31.3928205,36.6246154 L26.214359,36.6246154 L26.214359,33.6605128 L39.8492308,33.6605128 C40.494359,33.6605128 41,33.1548718 41,32.5271795 Z M18.3682051,18.2820513 C18.0717949,17.8461538 17.7753846,17.5497436 17.3394872,17.3928205 L18.6646154,15.1784615 C19.9897436,15.9107692 21.4717949,15.4748718 22.2215385,14.2892308 C22.5179487,13.8533333 22.5179487,13.4 22.5179487,12.9641026 L25.185641,12.9641026 C25.185641,14.4461538 26.3712821,15.4748718 27.8533333,15.4748718 C28.2892308,15.4748718 28.7425641,15.3353846 29.1784615,15.1784615 L30.5035897,17.3928205 C29.1784615,18.1251282 28.8820513,19.6071795 29.4748718,20.7928205 C29.7712821,21.2287179 30.0676923,21.5251282 30.5035897,21.6820513 L29.1784615,23.8964103 C27.8533333,23.1641026 26.3712821,23.6 25.6215385,24.785641 C25.3251282,25.2215385 25.3251282,25.6748718 25.3251282,26.1107692 L22.6574359,26.1107692 C22.6574359,24.785641 21.4717949,23.6 19.9897436,23.6 C19.5538462,23.6 19.1005128,23.7394872 18.6646154,23.8964103 L17.3394872,21.6820513 C18.5251282,20.9497436 18.9610256,19.4676923 18.3682051,18.2820513 Z M9.94666667,29.9466667 C9.94666667,29.545641 10.2779487,29.214359 10.6789744,29.214359 L37.3210256,29.214359 C37.7220513,29.214359 38.0533333,29.545641 38.0533333,29.9466667 C38.0533333,30.3476923 37.7220513,30.6789744 37.3210256,30.6789744 L10.6789744,30.6789744 C10.2779487,30.6964103 9.94666667,30.3651282 9.94666667,29.9466667 Z" id="形状" fill="#FFFFFF" fill-rule="nonzero"></path>
            <path d="M24,22.2748718 C25.4820513,22.2748718 26.8071795,21.0892308 26.8071795,19.6071795 C26.8071795,18.1251282 25.6215385,16.9394872 24,16.9394872 C22.5179487,16.9394872 21.1928205,18.1251282 21.1928205,19.6071795 C21.1753846,21.0892308 22.5179487,22.2748718 24,22.2748718 Z" id="路径" fill="#FFFFFF" fill-rule="nonzero"></path>
            <rect id="矩形" x="0" y="0" width="48" height="48"></rect>
        </g>
    </g>
</svg>