<?xml version="1.0" encoding="UTF-8"?>
<svg width="48px" height="48px" viewBox="0 0 48 48" version="1.1" xmlns="http://www.w3.org/2000/svg" xmlns:xlink="http://www.w3.org/1999/xlink">
    <title>消息</title>
    <g id="icons" stroke="none" stroke-width="1" fill="none" fill-rule="evenodd">
        <g id="消息">
            <rect x="0" y="0" width="48" height="48" rx="8"></rect>
            <path d="M36.3620948,31.9223575 C36.6575867,31.9139013 36.9530785,31.9730942 37.2359064,32.1591288 C36.2101276,31.4995516 35.5347176,30.3495195 35.5347176,29.0345932 L35.5347176,21.698911 C35.5347176,16.325048 31.6553317,11.8390775 26.4715603,10.7355541 L26.4715603,10.4734145 C26.4715603,9.10352338 25.3655765,8 24.0020926,8 C22.6386088,8 21.532625,9.10775144 21.532625,10.4734145 L21.532625,10.7355541 C16.3488536,11.8390775 12.4694676,16.32082 12.4694676,21.698911 L12.4694676,29.0345932 C12.4694676,30.3495195 11.7898364,31.4995516 10.7682788,32.1591288 C11.0553281,31.9730942 11.3465986,31.9096733 11.6420905,31.9223575 C10.7345083,31.9265855 10,32.6580397 10,33.5713004 C10,34.4845612 10.7345083,35.2202434 11.6463118,35.2202434 L36.3536522,35.2202434 C37.2654556,35.2202434 37.9999821,34.4845612 37.9999821,33.5713004 C38.0041853,32.6664958 37.2696769,31.9265855 36.3620948,31.9223575 L36.3620948,31.9223575 Z M24.0063139,41 C26.2816012,41 28.1263147,39.1523382 28.1263147,36.8734145 L19.8863132,36.8734145 C19.8863132,39.1523382 21.7268053,41 24.0063139,41 L24.0063139,41 Z" id="形状" fill="#FFFFFF" fill-rule="nonzero"></path>
        </g>
    </g>
</svg>