<?xml version="1.0" encoding="UTF-8"?>
<svg width="48px" height="48px" viewBox="0 0 48 48" version="1.1" xmlns="http://www.w3.org/2000/svg" xmlns:xlink="http://www.w3.org/1999/xlink">
    <title>编组 2</title>
    <g id="页面-1" stroke="none" stroke-width="1" fill="none" fill-rule="evenodd">
        <g id="编组-2">
            <rect id="矩形" x="0" y="0" width="48" height="48"></rect>
            <g id="编组" transform="translate(1.000000, 7.000000)">
                <g id="wifi" fill="#9CA3AF" fill-rule="nonzero">
                    <path d="M22.999939,34 C24.0487474,34 25.0178865,33.4420475 25.5422907,32.5363177 C26.066695,31.6305879 26.066695,30.5146828 25.5422907,29.608953 C25.0178865,28.7032232 24.0487474,28.1452707 22.999939,28.1452707 C21.3786216,28.1452707 20.0642843,29.4558966 20.0642843,31.0726354 C20.0642843,32.6893742 21.3786216,34 22.999939,34 Z M29.8237855,26.0240788 C29.3094956,26.0240788 28.7972068,25.8045763 28.3569587,25.439404 C25.3117545,22.7055871 20.6881234,22.7055871 17.6429193,25.439404 C16.748323,26.2396699 15.3747079,26.1738514 14.5611821,25.2917387 C13.75865,24.3996687 13.8246548,23.0299327 14.7092656,22.2187043 C16.9767158,20.1573789 19.9316513,19.0101785 22.999939,19 C26.0816761,19 29.0173309,20.0975123 31.2906123,22.1468671 C32.1711086,22.9510443 32.2451504,24.3418917 31.4386958,25.2199015 C30.9984476,25.7307436 30.410116,26.0240788 29.8237855,26.0240788 Z" id="形状"></path>
                    <path d="M36.7175226,19.9899885 C36.1933462,19.9899885 35.5957443,19.7594664 35.147033,19.3759614 C31.9305889,16.3016352 27.8187618,14.6104415 23.4805395,14.6104415 C19.1423172,14.6104415 14.955025,16.3016352 11.814046,19.3759614 C10.9166234,20.2205105 9.49502444,20.2205105 8.67306692,19.2984222 C7.77564436,18.2987947 7.77564436,16.8402187 8.67306692,15.9935739 C12.7114685,12.0746986 17.9471134,10 23.4805395,10 C29.0139656,10 34.2496105,12.1522379 38.2880121,15.9935739 C39.1854346,16.8402186 39.2608997,18.2987946 38.3634772,19.220883 C37.9147659,19.6819271 37.3151244,19.9899885 36.7175226,19.9899885 Z" id="路径"></path>
                    <path d="M42.7414681,12.9998281 C42.2160113,12.9998281 41.6169497,12.7690743 41.1671423,12.385184 C36.1689284,7.39906599 29.4714279,4.61124312 22.5001363,4.61507534 C15.528122,4.61507534 8.85461623,7.38412054 3.83313023,12.3075668 C2.9335155,13.2305818 1.50844394,13.2305818 0.608829207,12.3075668 C-0.215136135,11.3845517 -0.215136135,9.92241193 0.684478645,9.07701407 C6.60557932,3.23055274 14.3279541,0 22.5001363,0 C30.6702739,0 38.3926487,3.23055274 44.3157939,8.99939688 C45.2154087,9.84689252 45.2154087,11.3069345 44.3893988,12.2299496 C43.9793514,12.7257122 43.3751495,13.0079825 42.7414681,12.9998281 Z" id="路径"></path>
                </g>
                <path d="M38.0378917,24.2724825 L40.3033009,26.5383009 L42.5687101,24.2724825 C43.1942855,23.646907 44.2085438,23.646907 44.8341193,24.2724825 C45.4596947,24.8980579 45.4596947,25.9123162 44.8341193,26.5378917 L42.5683009,28.8033009 L44.8341193,31.0687101 C45.4596947,31.6942855 45.4596947,32.7085438 44.8341193,33.3341193 C44.2085438,33.9596947 43.1942855,33.9596947 42.5687101,33.3341193 L40.3033009,31.0683009 L38.0378917,33.3341193 C37.4123162,33.9596947 36.3980579,33.9596947 35.7724825,33.3341193 C35.146907,32.7085438 35.146907,31.6942855 35.7724825,31.0687101 L38.0383009,28.8033009 L35.7724825,26.5378917 C35.146907,25.9123162 35.146907,24.8980579 35.7724825,24.2724825 C36.3980579,23.646907 37.4123162,23.646907 38.0378917,24.2724825 Z" id="形状结合" fill="#EF7272"></path>
            </g>
        </g>
    </g>
</svg>