<?xml version="1.0" encoding="UTF-8"?>
<svg width="48px" height="48px" viewBox="0 0 48 48" version="1.1" xmlns="http://www.w3.org/2000/svg" xmlns:xlink="http://www.w3.org/1999/xlink">
    <title>编组</title>
    <g id="页面-1" stroke="none" stroke-width="1" fill="none" fill-rule="evenodd">
        <g id="编组">
            <path d="M24.0420445,22.2413793 C27.1242807,22.2413793 29.9030201,20.384685 31.0825408,17.5370701 C32.2620615,14.6894551 31.6100772,11.4117085 29.4306071,9.23223844 C27.2511369,7.05276832 23.9733904,6.400784 21.1257754,7.58030474 C18.2781605,8.75982549 16.4214662,11.5385649 16.4214662,14.6208011 C16.4214662,18.8295302 19.8333154,22.2413793 24.0420445,22.2413793 L24.0420445,22.2413793 Z" id="路径" fill="#FFFFFF" fill-rule="nonzero"></path>
            <path d="M38.5714286,41 C39.9126915,41 41,40.1543211 41,39.1111234 C41,31.8087391 33.3888407,25.888987 24,25.888987 C14.6111593,25.888987 7,31.8087391 7,39.1111234 C7,40.1543211 8.08730847,41 9.42857144,41 L38.5714286,41 Z" id="路径" fill="#FFFFFF" fill-rule="nonzero"></path>
            <rect id="矩形" x="0" y="0" width="48" height="48"></rect>
        </g>
    </g>
</svg>