<?xml version="1.0" encoding="UTF-8"?>
<svg width="512px" height="512px" viewBox="0 0 512 512" version="1.1" xmlns="http://www.w3.org/2000/svg" xmlns:xlink="http://www.w3.org/1999/xlink">
    <title>画板</title>
    <defs>
        <linearGradient x1="50%" y1="0%" x2="50%" y2="100%" id="linearGradient-1">
            <stop stop-color="#219AEA" offset="0%"></stop>
            <stop stop-color="#0563A5" offset="100%"></stop>
        </linearGradient>
    </defs>
    <g id="画板" stroke="none" stroke-width="1" fill="none" fill-rule="evenodd">
        <g id="编组-4" transform="translate(256.000000, 256.000000) rotate(-90.000000) translate(-256.000000, -256.000000) translate(34.594595, 34.594595)">
            <path d="M141.914511,-2.02428623e-14 L300.8963,-8.77583015e-15 C350.243067,5.09901004e-15 368.137397,5.13802302 386.177838,14.7861561 C404.218278,24.4342893 418.376522,38.5925325 428.024655,56.6329729 C437.672788,74.6734134 442.810811,92.5677435 442.810811,141.914511 L442.810811,300.8963 C442.810811,350.243067 437.672788,368.137397 428.024655,386.177838 C418.376522,404.218278 404.218278,418.376522 386.177838,428.024655 C368.137397,437.672788 350.243067,442.810811 300.8963,442.810811 L141.914511,442.810811 C92.5677435,442.810811 74.6734134,437.672788 56.6329729,428.024655 C38.5925325,418.376522 24.4342893,404.218278 14.7861561,386.177838 C5.13802302,368.137397 1.065124e-14,350.243067 -1.83316903e-14,300.8963 L-1.06870022e-14,141.914511 C6.20945603e-15,92.5677435 5.13802302,74.6734134 14.7861561,56.6329729 C24.4342893,38.5925325 38.5925325,24.4342893 56.6329729,14.7861561 C74.6734134,5.13802302 92.5677435,1.1761686e-14 141.914511,-2.02428623e-14 Z" id="矩形" fill="url(#linearGradient-1)"></path>
            <g id="编组-2" transform="translate(76.492492, 89.561562)" fill="#FFFFFF">
                <g id="编组" transform="translate(0.000000, -0.000000)">
                    <circle id="椭圆形" cx="38.0540541" cy="38.0540541" r="38.0540541"></circle>
                    <circle id="椭圆形" cx="249.081081" cy="38.0540541" r="38.0540541"></circle>
                </g>
                <path d="M128.839406,258.800764 L70.1304318,200.09179 C62.0244141,191.985773 62.0244141,178.843321 70.1304318,170.737304 C78.2364495,162.631286 91.378901,162.631286 99.4849187,170.737304 L143.566918,214.81979 L187.650216,170.737304 C195.756234,162.631286 208.898686,162.631286 217.004703,170.737304 C225.110721,178.843321 225.110721,191.985773 217.004703,200.09179 L158.29573,258.800764 C154.242721,262.853773 148.930603,264.880278 143.618486,264.880278 L143.516649,264.880278 C138.204532,264.880278 132.892414,262.853773 128.839406,258.800764 Z" id="形状结合"></path>
            </g>
        </g>
    </g>
</svg>