<?xml version="1.0" encoding="UTF-8"?>
<svg width="114px" height="114px" viewBox="0 0 114 114" version="1.1" xmlns="http://www.w3.org/2000/svg" xmlns:xlink="http://www.w3.org/1999/xlink">
    <title>画板</title>
    <defs>
        <linearGradient x1="50%" y1="0%" x2="50%" y2="100%" id="linearGradient-1">
            <stop stop-color="#219AEA" offset="0%"></stop>
            <stop stop-color="#0563A5" offset="100%"></stop>
        </linearGradient>
    </defs>
    <g id="画板" stroke="none" stroke-width="1" fill="none" fill-rule="evenodd">
        <g id="编组-4" transform="translate(57.000000, 57.000000) rotate(-90.000000) translate(-57.000000, -57.000000) translate(7.702703, 7.702703)">
            <path d="M31.5981527,-1.27660319e-15 L66.9964419,1.27660319e-15 C77.983808,-7.41743217e-16 81.9680924,1.14401294 85.9849092,3.29223008 C90.001726,5.44044722 93.1541474,8.59286857 95.3023645,12.6096854 C97.4505817,16.6265022 98.5945946,20.6107866 98.5945946,31.5981527 L98.5945946,66.9964419 C98.5945946,77.983808 97.4505817,81.9680924 95.3023645,85.9849092 C93.1541474,90.001726 90.001726,93.1541474 85.9849092,95.3023645 C81.9680924,97.4505817 77.983808,98.5945946 66.9964419,98.5945946 L31.5981527,98.5945946 C20.6107866,98.5945946 16.6265022,97.4505817 12.6096854,95.3023645 C8.59286857,93.1541474 5.44044722,90.001726 3.29223008,85.9849092 C1.14401294,81.9680924 4.94495478e-16,77.983808 -8.51068793e-16,66.9964419 L8.51068793e-16,31.5981527 C-4.94495478e-16,20.6107866 1.14401294,16.6265022 3.29223008,12.6096854 C5.44044722,8.59286857 8.59286857,5.44044722 12.6096854,3.29223008 C16.6265022,1.14401294 20.6107866,7.41743217e-16 31.5981527,-1.27660319e-15 Z" id="矩形" fill="url(#linearGradient-1)"></path>
            <g id="编组-2" transform="translate(17.031532, 19.941441)" fill="#FFFFFF">
                <g id="编组" transform="translate(0.000000, -0.000000)">
                    <circle id="椭圆形" cx="8.47297297" cy="8.47297297" r="8.47297297"></circle>
                    <circle id="椭圆形" cx="55.4594595" cy="8.47297297" r="8.47297297"></circle>
                </g>
                <path d="M28.6868989,57.6236077 L15.614979,44.5516877 C13.8101234,42.7468322 13.8101234,39.8205832 15.614979,38.0157277 C17.4198345,36.2108722 20.3460834,36.2108722 22.1509389,38.0157277 L31.9663373,47.8310861 L41.7814935,38.0157277 C43.586349,36.2108722 46.512598,36.2108722 48.3174535,38.0157277 C50.122309,39.8205832 50.122309,42.7468322 48.3174535,44.5516877 L35.2455335,57.6236077 C34.3431058,58.5260354 33.1603297,58.9772493 31.9775535,58.9772493 L31.9548789,58.9772493 C30.7721028,58.9772493 29.5893267,58.5260354 28.6868989,57.6236077 Z" id="形状结合"></path>
            </g>
        </g>
    </g>
</svg>